<?xml version="1.0" encoding="UTF-8" standalone="no"?><!DOCTYPE svg PUBLIC "-//W3C//DTD SVG 1.1//EN" "http://www.w3.org/Graphics/SVG/1.1/DTD/svg11.dtd"><svg width="100%" height="100%" viewBox="0 0 2134 2134" version="1.1" xmlns="http://www.w3.org/2000/svg" xmlnsXlink="http://www.w3.org/1999/xlink" xmlSpace="preserve" xmlnsSerif="http://www.serif.com/" style="fill-rule:evenodd;clip-rule:evenodd;stroke-miterlimit:10;"><path d="M1066.67,852.917c189.718,-0 345.833,156.114 345.833,345.833l0,70.833l-691.667,0l0,-70.833c0,-189.719 156.115,-345.833 345.834,-345.833Z" style="fill:url(#_Linear1);fill-rule:nonzero;stroke:#efa758;stroke-width:16.67px;"/><path d="M666.667,1322.92l-0,143.333c-0,26.25 29.583,47.5 66.666,47.5l666.667,0c37.083,0 66.667,-21.25 66.667,-47.5l-0,-143.333c-0,-26.25 -29.584,-47.5 -66.667,-47.5l-666.667,-0c-37.083,-0 -66.666,20.833 -66.666,47.5Z" style="fill:url(#_Linear2);fill-rule:nonzero;stroke:#e6effc;stroke-width:16.67px;"/><circle cx="1066.67" cy="711.25" r="91.667" style="fill:url(#_Linear3);stroke:#e6effc;stroke-width:16.67px;"/><defs><linearGradient id="_Linear1" x1="0" y1="0" x2="1" y2="0" gradientUnits="userSpaceOnUse" gradientTransform="matrix(290.417,502.5,-502.5,290.417,898.333,896.25)"><stop offset="0" style="stop-color:#f9c172;stop-opacity:1"/><stop offset="1" style="stop-color:#df7c2d;stop-opacity:1"/></linearGradient><linearGradient id="_Linear2" x1="0" y1="0" x2="1" y2="0" gradientUnits="userSpaceOnUse" gradientTransform="matrix(281.667,488.333,-488.333,281.667,925.833,1150.42)"><stop offset="0" style="stop-color:#f3f7fe;stop-opacity:1"/><stop offset="0.5" style="stop-color:#f3f7fe;stop-opacity:1"/><stop offset="1" style="stop-color:#deeafb;stop-opacity:1"/></linearGradient><linearGradient id="_Linear3" x1="0" y1="0" x2="1" y2="0" gradientUnits="userSpaceOnUse" gradientTransform="matrix(4033.33,6985,-6985,4033.33,45891.7,28412.9)"><stop offset="0" style="stop-color:#f3f7fe;stop-opacity:1"/><stop offset="0.5" style="stop-color:#f3f7fe;stop-opacity:1"/><stop offset="1" style="stop-color:#deeafb;stop-opacity:1"/></linearGradient></defs></svg>