<?xml version="1.0" encoding="UTF-8" standalone="no"?><!DOCTYPE svg PUBLIC "-//W3C//DTD SVG 1.1//EN" "http://www.w3.org/Graphics/SVG/1.1/DTD/svg11.dtd"><svg width="100%" height="100%" viewBox="0 0 2134 2134" version="1.1" xmlns="http://www.w3.org/2000/svg" xmlnsXlink="http://www.w3.org/1999/xlink" xmlSpace="preserve" xmlnsSerif="http://www.serif.com/" style="fill-rule:evenodd;clip-rule:evenodd;stroke-linejoin:round;stroke-miterlimit:2;"><path d="M1467,481.591c-48.327,-1.893 -93.116,15.25 -126.12,48.272c-0.393,0.393 -0.749,0.786 -1.106,1.18c-1.465,1.678 -150.014,170.91 -393.932,414.845c-243.811,243.827 -413.168,392.485 -414.846,393.948c-0.411,0.357 -0.82,0.75 -1.195,1.107c-33.004,33.004 -50.15,77.794 -48.254,126.12c1.874,47.611 22.074,92.974 56.879,127.797c72.347,72.366 186.269,76.225 253.884,8.573c0.393,-0.356 0.768,-0.786 1.124,-1.179c1.466,-1.678 149.98,-171.16 393.757,-414.969c243.808,-243.809 413.327,-392.323 415.005,-393.788c0.393,-0.357 0.821,-0.732 1.18,-1.125c67.649,-67.631 63.79,-181.537 -8.573,-253.9c-34.794,-34.826 -80.188,-55.007 -127.803,-56.881Z" style="fill:#4a89dc;fill-rule:nonzero;"/><g><path d="M539.23,1332.55c-5.215,4.643 -8.036,7.105 -8.233,7.285c-0.411,0.357 -0.82,0.75 -1.195,1.107c-33.004,33.004 -50.15,77.794 -48.254,126.12c1.874,47.611 22.074,92.974 56.879,127.797c72.347,72.366 186.269,76.225 253.884,8.573c0.393,-0.356 0.768,-0.786 1.124,-1.179c0.179,-0.215 2.643,-3.036 7.27,-8.249l-261.475,-261.454Z" style="fill:#5d9cec;fill-rule:nonzero;"/><path d="M1593.98,800.748c5.214,-4.643 8.037,-7.107 8.25,-7.288c0.393,-0.357 0.786,-0.732 1.143,-1.106c33.038,-33.004 50.181,-77.793 48.288,-126.12c-1.856,-47.594 -22.071,-92.993 -56.861,-127.782c-72.363,-72.363 -186.305,-76.24 -253.883,-8.61c-0.43,0.394 -0.787,0.787 -1.143,1.214c-0.179,0.197 -2.643,3 -7.288,8.235l261.494,261.457Z" style="fill:#5d9cec;fill-rule:nonzero;"/></g><g><path d="M800.666,1160.78c-6.732,6.714 -12.162,14.463 -16.144,22.965c-11.412,24.466 -9.716,53.935 4.643,80.758c13.323,24.929 36.289,45.968 64.648,59.186c20.734,9.679 40.291,18.787 60.114,22.001c25.983,4.179 48.307,-2.821 66.328,-20.858c9.501,-9.501 17.769,-21.932 25.27,-38.006c18.199,-39.073 17.68,-70.221 -1.625,-95.294c-15.77,-20.467 -40.951,-32.181 -67.65,-44.647c-49.646,-23.147 -104.132,-17.573 -135.584,13.895Z" style="fill:#e6e9ed;fill-rule:nonzero;"/><path d="M1264.84,789.603c-26.825,-14.358 -56.255,-16.036 -80.723,-4.624c-8.536,3.982 -16.252,9.393 -23.002,16.128c-31.432,31.468 -37.005,85.956 -13.859,135.602c12.432,26.663 24.182,51.88 44.65,67.631c25.034,19.306 56.218,19.843 95.258,1.626c16.071,-7.501 28.502,-15.77 38.04,-25.27c18.002,-18.04 25.039,-40.345 20.86,-66.312c-3.214,-19.823 -12.358,-39.396 -22.003,-60.131c-13.255,-28.361 -34.291,-51.326 -59.221,-64.65Z" style="fill:#e6e9ed;fill-rule:nonzero;"/></g><g><path d="M922.5,1145.03l-0.019,-0.179c-7,1.002 -43.325,9.108 -71.649,69.828c-28.325,60.723 -11.163,93.761 -7.43,99.762l0.036,-0.037c0.947,1.536 2.072,2.999 3.411,4.357c9.519,9.501 24.966,9.501 34.486,0c7.875,-7.893 9.215,-19.788 4.089,-29.076c-2.716,-6.109 -4.089,-25.037 9.609,-54.397c13.179,-28.29 27.912,-39.613 34.734,-42.075c5.055,-0.713 9.928,-2.999 13.806,-6.895c9.537,-9.501 9.537,-24.929 -0,-34.467c-5.732,-5.715 -13.625,-8.001 -21.073,-6.821Zm-37.629,143.727c0.053,0.107 0.215,0.356 0.446,0.786c-0.142,-0.251 -0.284,-0.537 -0.446,-0.786Z" style="fill:#434a54;fill-rule:nonzero;"/><path d="M1151.83,943.62c9.501,9.519 24.932,9.519 34.433,0c3.93,-3.893 6.179,-8.767 6.895,-13.821c2.462,-6.806 13.821,-21.537 42.072,-34.719c29.397,-13.698 48.291,-12.324 54.4,-9.626c9.286,5.143 21.214,3.785 29.074,-4.072c9.501,-9.519 9.501,-24.966 -0,-34.485c-1.358,-1.34 -2.787,-2.465 -4.357,-3.429l0.036,-0.037c-6.001,-3.715 -39.037,-20.876 -99.759,7.448c-60.723,28.306 -68.795,64.648 -69.794,71.65l0.142,0.018c-1.143,7.446 1.072,15.34 6.858,21.073Zm137.658,-58.256c-0.43,-0.233 -0.713,-0.393 -0.787,-0.445c0.286,0.141 0.501,0.301 0.787,0.445Z" style="fill:#434a54;fill-rule:nonzero;"/></g></svg>