<?xml version="1.0" encoding="UTF-8" standalone="no"?><!DOCTYPE svg PUBLIC "-//W3C//DTD SVG 1.1//EN" "http://www.w3.org/Graphics/SVG/1.1/DTD/svg11.dtd"><svg width="100%" height="100%" viewBox="0 0 2134 2134" version="1.1" xmlns="http://www.w3.org/2000/svg" xmlnsXlink="http://www.w3.org/1999/xlink" xmlSpace="preserve" xmlnsSerif="http://www.serif.com/" style="fill-rule:evenodd;clip-rule:evenodd;stroke-linejoin:round;stroke-miterlimit:2;"><path d="M774.782,1049.04l-211.313,203.838c-17.274,16.662 -42.975,21.078 -64.82,11.134l-32.938,-14.992c-17.434,-7.936 -20.763,-31.278 -6.239,-43.769l258.466,-222.304l56.844,66.093Z" style="fill:#394049;fill-rule:nonzero;"/><path d="M717.938,982.947l-235.671,202.692c14.467,36.073 30.188,62.894 48.498,83.043c12.046,-1.642 23.559,-6.993 32.701,-15.814l211.313,-203.839l-56.841,-66.082Z" style="fill-opacity:0.2;fill-rule:nonzero;"/><path d="M1358.55,1049.04l211.313,203.838c17.274,16.662 42.975,21.078 64.82,11.134l32.938,-14.992c17.434,-7.936 20.763,-31.278 6.239,-43.769l-258.466,-222.304l-56.844,66.093Z" style="fill:#394049;fill-rule:nonzero;"/><path d="M1415.39,982.947l235.672,202.692c-14.468,36.073 -30.188,62.894 -48.499,83.043c-12.045,-1.642 -23.559,-6.993 -32.701,-15.814l-211.313,-203.839l56.841,-66.082Z" style="fill-opacity:0.2;fill-rule:nonzero;"/><path d="M1066.67,981.582c14.985,-0 41.77,2.088 41.77,31.153c0.754,30.656 8.002,65.133 21.782,103.808c59.321,166.502 141.402,191.755 277.77,187.074c49.137,-1.688 108.563,-0.863 150.112,-35.281c38.115,-31.571 65.334,-84.722 91.016,-177.717c8.774,-31.767 13.5,-60.537 14.175,-86.505l0.003,0c1.601,-19.242 22.015,-30.009 37.583,-35.469c10.642,-3.729 17.732,-13.798 17.732,-25.075l0,-48.131c0,-12.007 -7.729,-22.655 -19.156,-26.348c-51.078,-16.499 -144.379,-43.871 -314.326,-39.386c-138.034,3.644 -271.773,27.634 -318.458,27.634c-46.688,-0 -180.424,-23.99 -318.457,-27.634c-169.951,-4.485 -263.249,22.887 -314.327,39.386c-11.43,3.69 -19.159,14.338 -19.159,26.345l0,48.132c0,11.276 7.09,21.343 17.733,25.074c15.565,5.455 35.981,16.227 37.583,35.47l0.002,-0c0.673,25.968 5.402,54.737 14.175,86.504c25.685,92.996 52.907,146.147 91.017,177.717c41.546,34.416 100.972,33.593 150.112,35.282c136.362,4.683 218.446,-20.575 277.77,-187.074c13.779,-38.673 21.025,-73.152 21.781,-103.809c-0.005,-29.065 26.786,-31.15 41.767,-31.15Z" style="fill:#394049;fill-rule:nonzero;"/><path d="M746.124,886.999c-130.212,-4.744 -266.735,-1.566 -206.642,188.353c54.333,171.712 104.234,167.324 188.352,170.981c84.118,3.657 168.473,-0.853 221.27,-149.037c56.161,-157.63 -14.849,-203.441 -202.98,-210.297Z" style="fill:#536ba5;fill-rule:nonzero;"/><path d="M746.124,886.999c-110.282,-4.016 -225.067,-2.332 -221.122,113.649c3.598,-105.026 114.461,-106.482 221.122,-102.596c143.152,5.213 218.474,32.999 221.576,115.429c3.321,-91.027 -72.205,-121.039 -221.576,-126.482Z" style="fill-opacity:0.2;fill-rule:nonzero;"/><path d="M1387.21,886.999c130.212,-4.744 266.735,-1.566 206.639,188.353c-54.332,171.712 -104.234,167.324 -188.352,170.981c-84.118,3.657 -168.473,-0.853 -221.27,-149.037c-56.158,-157.63 14.852,-203.441 202.983,-210.297Z" style="fill:#536ba5;fill-rule:nonzero;"/><path d="M1387.21,886.999c110.282,-4.016 225.067,-2.332 221.122,113.649c-3.596,-105.026 -114.461,-106.482 -221.122,-102.596c-143.155,5.213 -218.474,32.999 -221.576,115.429c-3.323,-91.027 72.205,-121.039 221.576,-126.482Z" style="fill-opacity:0.2;fill-rule:nonzero;"/><g><path d="M746.124,886.999c-130.212,-4.744 -266.735,-1.566 -206.642,188.353c8.203,25.922 16.304,47.805 24.435,66.334l249.844,-249.843c-20.542,-2.384 -43.082,-3.95 -67.637,-4.844Z" style="fill:#fff;fill-opacity:0.1;fill-rule:nonzero;"/><path d="M1577.97,919.354l-304.237,304.238c40.627,24.294 86.227,24.722 131.759,22.744c84.118,-3.657 134.019,0.73 188.352,-170.982c25.97,-82.063 15.208,-129.242 -15.874,-156Z" style="fill:#fff;fill-opacity:0.1;fill-rule:nonzero;"/></g></svg>